<!--?xml version="1.0" encoding="utf-8"?-->
<!-- Generator: Adobe Illustrator 22.1.0, SVG Export Plug-In . SVG Version: 6.00 Build 0)  -->
<svg version="1.1" id="_x31_1" xmlns="http://www.w3.org/2000/svg" xmlns:xlink="http://www.w3.org/1999/xlink" x="0px" y="0px" viewBox="0 0 800 666.977" style="width: 50px;" xml:space="preserve">
<style type="text/css">
	.st0{fill:#040000;}
</style>
<g>
	<path class="st0" d="M765.417,208.476c-28.499-4.808-75.618-5.088-113.419,4.503c-37.817,9.597-150.658,55.315-152.645,55.315
		c-1.97,0-23.699-19.478-30.19-23.701c20.319-5.384,43.731-16.081,47.111-19.469c3.398-3.397,3.398-12.146-1.963-29.924
		c-5.367-17.763-12.698-23.412-18.627-22.562c-5.922,0.84-20.872,5.92-20.872,5.92s-2.828-2.821-5.937-2.541
		c-3.092,0.281-12.411,4.8-13.251,4.8c-0.842,0,2.251,4.511,2.251,4.511c-22.002,8.469-42.319,20.319-42.319,20.319
		s-2.532,2.54-3.951,2.828c-1.402,0.273-10.431-3.671-12.971-5.088c-0.345-0.184-4.928-3.766-12.619-9.83
		c0.359-0.795,0.873-1.748,1.546-2.588c8.557,6.712,13.644,10.647,13.893,10.727c1.69,0.568,9.31,5.072,10.72,3.108L158.538,3.919
		c0,0-0.85,3.678,0.842,5.938c0.215,0.272,4.036,3.388,10.591,8.668c-0.377,0.673-0.897,1.482-1.491,2.163
		c-8.588-6.85-13.604-10.831-13.604-10.831s2.251-1.427-1.426-4.527c-3.661-3.101-30.75-4.239-38.081-3.39
		c-7.338,0.858-21.72,3.687-21.72,5.93c0,2.259,8.46,1.402,8.46,1.402l73.92,80.698h5.641c0,0,21.44,21.455,23.988,24.268
		c2.532,2.821,1.41,3.108,0.553,2.821c-0.842-0.289-25.663-24.549-25.663-24.549l-14.966,7.338l22.297,23.981l1.129,3.388
		c0,0-8.18,7.051-7.059,8.46c1.138,1.42,16.08-2.546,16.08-2.546l64.328,71.386c0,0-9.87,8.757-9.589,10.16
		c0.281,1.41,17.771-2.251,17.771-2.251l32.16,33.851c0,0,3.109-0.281,3.957,0.56c0.858,0.866-1.129,3.39-1.129,3.39
		s7.059,14.67,7.059,15.511c0,0.85,7.618,15.519,7.618,15.519s-5.928,4.799-8.46,7.051c-2.548,2.259-2.548,4.808,0,4.808
		c2.532,0,12.963-3.39,12.963-3.39l17.219,37.52c-72.799,26.528-145.307,59.546-145.307,59.546s-51.069-20.606-55.579-23.435
		c-4.511-2.827-11.001-2.251-13.26-1.401c-2.259,0.84-22.571,9.302-22.571,9.302l0.289,12.129c0,0-65.468-41.18-70.82-45.691
		c-5.359-4.536-9.886-2.829-11.848-2.548c-1.971,0.281-17.484,5.64-18.629,6.217c-1.12,0.561-2.82,1.682-1.971,2.523
		c0.85,0.857,80.69,90,90.008,99.878c-16.088,8.757-27.097,19.749-31.608,23.42c-4.511,3.685-4.791,11.576,2.259,12.69
		c7.051,1.137,52.759-1.114,52.759-1.114l37.52,87.171c0,0,1.979,3.39,2.829,3.11c0.842-0.281,17.489-5.642,19.749-6.498
		c2.251-0.842,1.684-2.813,2.251-4.511c0.578-1.684,1.69-86.05,3.39-89.431c80.688-7.901,156.299-31.319,156.299-31.319
		s29.908,0.289,38.657-0.289c8.749-0.553,28.779-6.762,28.779-6.762s-1.698,4.23-0.856,5.633
		c0.856,1.418,26.815,48.537,26.815,48.537s-8.749,9.03-7.057,9.878c1.69,0.834,11.849-3.108,11.849-3.108l7.331,12.138l6.498,0.842
		l-0.842,5.648l4.783,32.442c0,0-5.928,7.332-7.891,8.749c-1.987,1.401-1.979,3.1-0.569,3.372
		c1.417,0.281,11.001-2.532,11.001-2.532s8.757,52.48,8.461,53.322c-0.281,0.848-7.604,10.448-7.331,11.568
		c0.289,1.131,9.038-2.266,9.038-2.266s1.962,12.426,2.251,13.836c0.272,1.411,8.172-7.618,8.172-7.618l2.267,0.281l-1.129,1.971
		c0,0,7.049,40.908,7.339,42.039c0.281,1.129,29.34-0.85,29.34-0.85s4.23-4.519,5.642-6.481l2.258,4.23c0,0,0.85,1.13,2.259,0.281
		c1.411-0.842,20.303-170.969,20.303-170.969l4.807-0.561c0,0,3.663,3.669,3.943,4.783c38.368-4.222,64.615-16.922,75.337-22.281
		c10.72-5.36,8.461-14.671,3.1-32.442c-5.351-17.771-12.129-19.757-17.209-19.477c-5.08,0.289-20.03,5.36-20.03,5.36
		s-1.698-2.251-4.791-2.54c-3.11-0.273-12.138,4.23-12.138,4.23l1.698,4.8c-2.267,0.569-27.658,11.281-27.658,11.281l6.209-60.379
		c0,0,3.101-4.214,4.231-4.783c1.041-0.513-5.713-2.211-11.834-2.932c0.159,0.128,0.264,0.264,0.264,0.392l-6.13,65.162
		c0,0,4.231,2.765,3.59,3.188c-0.625,0.417-6.762-2.747-6.762-2.747s5.704-66.445,6.345-66.668c0.32-0.113,1.081,0,1.746,0.223
		c9.087-3.541,48.506-28.105,54.259-33.577c156.019-55.301,177.458-84.647,189.308-101.281
		C805.198,224.268,793.901,213.274,765.417,208.476z M230.55,66.854c9.35,7.412,19.18,15.214,29.203,23.187
		c-0.345,0.625-0.848,1.45-1.434,2.154c-9.951-7.923-19.741-15.711-29.083-23.154C229.556,68.352,229.997,67.568,230.55,66.854z
		 M197.18,43.53c-10.656-8.485-19.879-15.822-26.97-21.464c0.32-0.705,0.77-1.522,1.339-2.267
		c6.785,5.456,16.079,12.884,27.079,21.633C198.245,42.088,197.756,42.874,197.18,43.53z M198.901,44.893
		c0.321-0.673,0.753-1.465,1.306-2.196c8.71,6.947,18.412,14.679,28.756,22.875c-0.377,0.657-0.882,1.443-1.451,2.107
		C217.297,59.555,207.643,51.863,198.901,44.893z M282.884,191.048c-0.626-0.632-66.861-66.436-66.861-66.436l1.05-2.332
		c0,0,65.811,66.012,66.869,67.077C284.999,190.416,283.525,191.689,282.884,191.048z M289.51,116.994
		c-9.814-7.804-19.734-15.704-29.508-23.476c0.344-0.705,0.792-1.49,1.378-2.212c9.805,7.782,19.781,15.697,29.66,23.508
		C290.648,115.502,290.118,116.319,289.51,116.994z M319.075,226.806c-1.067,0.209-26.88-26.231-26.88-26.231l2.323-0.633
		l24.758,24.749C319.275,224.691,320.123,226.591,319.075,226.806z M320.237,141.413c-9.35-7.427-19.093-15.174-28.965-23.026
		c0.322-0.704,0.77-1.554,1.347-2.307c9.934,7.852,19.758,15.631,29.196,23.082C321.415,139.859,320.87,140.724,320.237,141.413z
		 M332.71,151.31c-3.485-2.765-7.065-5.609-10.695-8.477c0.328-0.745,0.793-1.603,1.393-2.404c3.71,2.924,7.348,5.817,10.905,8.613
		C333.914,149.754,333.352,150.62,332.71,151.31z M334.497,152.727c0.314-0.737,0.794-1.618,1.403-2.42
		c6.49,5.112,12.699,10.024,18.532,14.621c-0.425,0.761-1.011,1.636-1.667,2.3C347.012,162.671,340.884,157.808,334.497,152.727z
		 M360.544,304.668c-0.639-0.409-13.54-27.081-13.54-27.081s1.483-1.467,2.107-0.842c0.641,0.641,12.908,26.239,12.908,26.239
		l0.215,2.332C362.235,305.316,361.178,305.1,360.544,304.668z M384.252,192.162c-7.579-5.976-17.763-14.044-29.652-23.468
		c0.314-0.745,0.794-1.657,1.411-2.523c11.904,9.382,22.176,17.467,29.924,23.54C385.527,190.44,384.932,191.401,384.252,192.162z
		 M452.171,464.645c-0.842,0.632-2.748-0.209-2.748-0.209s-24.124-39.779-24.557-40.421c-0.415-0.617,1.067-1.898,1.067-1.898
		S453.012,464.019,452.171,464.645z M499.354,278.652c-0.425-0.641-38.731-30.694-38.731-30.694l3.607-1.259
		c0,0,37.023,29.613,37.24,30.888C501.685,278.861,499.779,279.277,499.354,278.652z M519.448,655.723
		c-0.626,0.225-2.957,0.425-2.732-0.633c0.208-1.065,18.196-163.774,18.196-163.774l2.74,0.417
		C537.652,491.734,520.098,655.515,519.448,655.723z" style="fill: rgb(255, 255, 255); opacity: 1;"></path>
</g>
</svg>
